<svg version="1.1" id="Layer_1" xmlns="http://www.w3.org/2000/svg" xmlns:xlink="http://www.w3.org/1999/xlink" x="0px" y="0px"
	 width="100%" viewBox="0 0 50 50" enable-background="new 0 0 50 50" xml:space="preserve">
<path fill="#000000" opacity="1.000000" stroke="none" 
	d="
M14.000000,1.000000 
	C26.290358,1.000000 38.580715,1.000000 50.935539,1.000000 
	C50.935539,17.565422 50.935539,34.131130 50.935539,51.000000 
	C38.314049,51.000000 25.625681,51.000000 12.176436,50.597023 
	C11.610384,46.094357 12.291821,41.944107 11.872469,37.908237 
	C11.387224,33.238220 13.444732,31.439001 17.439747,29.911718 
	C27.731800,25.977097 37.854362,21.599117 48.998188,17.005186 
	C37.885082,12.413548 27.686764,8.257412 17.554893,3.945159 
	C16.197910,3.367610 15.176701,2.001138 14.000000,1.000000 
z"/>
<path fill="#FFC107" opacity="1.000000" stroke="none" 
	d="
M13.600004,1.000000 
	C15.176701,2.001138 16.197910,3.367610 17.554893,3.945159 
	C27.686764,8.257412 37.885082,12.413548 48.998188,17.005186 
	C37.854362,21.599117 27.731800,25.977097 17.439747,29.911718 
	C13.444732,31.439001 11.387224,33.238220 11.872469,37.908237 
	C12.291821,41.944107 11.610384,46.094357 11.707779,50.597023 
	C11.555555,51.000000 11.111111,51.000000 10.625120,50.596596 
	C10.389043,48.585148 10.030308,46.977585 10.025581,45.368980 
	C9.982126,30.579424 9.999993,15.789685 10.000000,1.000000 
	C11.066669,1.000000 12.133339,1.000000 13.600004,1.000000 
z"/>
<path fill="#000000" opacity="1.000000" stroke="none" 
	d="
M9.508951,1.000000 
	C9.999993,15.789685 9.982126,30.579424 10.025581,45.368980 
	C10.030308,46.977585 10.389043,48.585148 10.291788,50.596596 
	C7.021426,51.000000 4.042853,51.000000 1.037522,51.000000 
	C1.037522,34.333321 1.037522,17.666653 1.037522,1.000000 
	C3.722663,1.000000 6.370283,1.000000 9.508951,1.000000 
z"/>
</svg>