<svg version="1.1" id="Layer_1" xmlns="http://www.w3.org/2000/svg" xmlns:xlink="http://www.w3.org/1999/xlink" x="0px" y="0px"
	 width="100%" viewBox="0 0 50 50" enable-background="new 0 0 50 50" xml:space="preserve">
<path fill="#000000" opacity="1.000000" stroke="none" 
	d="
M25.000000,51.000000 
	C17.037483,51.000000 9.074965,51.000000 1.056224,51.000000 
	C1.056224,34.449055 1.056224,17.897888 1.056224,1.000000 
	C7.349767,1.000000 13.705841,1.000000 20.865372,1.255963 
	C20.863527,2.328251 20.110010,3.204688 19.244085,3.950639 
	C15.203802,7.431144 14.573318,14.561563 17.968845,18.770092 
	C21.144058,22.705557 28.149923,23.409506 32.369549,20.217079 
	C37.167774,16.586897 37.643410,9.300786 33.493118,4.909623 
	C32.450447,3.806438 31.819931,2.313707 31.000000,1.000000 
	C37.635483,1.000000 44.270962,1.000000 50.953224,1.000000 
	C50.953224,17.557415 50.953224,34.114979 50.953224,51.000000 
	C43.315563,51.000000 35.626472,51.000000 27.127584,50.708282 
	C31.984737,41.674263 27.517675,32.209808 29.129847,23.205639 
	C26.649483,23.205639 25.037554,23.205639 22.102880,23.205639 
	C23.090839,32.683910 24.045420,41.841957 25.000000,51.000000 
z"/>
<path fill="#FFC107" opacity="1.000000" stroke="none" 
	d="
M30.545891,1.000000 
	C31.819931,2.313707 32.450447,3.806438 33.493118,4.909623 
	C37.643410,9.300786 37.167774,16.586897 32.369549,20.217079 
	C28.149923,23.409506 21.144058,22.705557 17.968845,18.770092 
	C14.573318,14.561563 15.203802,7.431144 19.244085,3.950639 
	C20.110010,3.204688 20.863527,2.328251 21.334415,1.255963 
	C24.030594,1.000000 27.061186,1.000000 30.545891,1.000000 
z"/>
<path fill="#FFC107" opacity="1.000000" stroke="none" 
	d="
M25.333332,51.000000 
	C24.045420,41.841957 23.090839,32.683910 22.102880,23.205639 
	C25.037554,23.205639 26.649483,23.205639 29.129847,23.205639 
	C27.517675,32.209808 31.984737,41.674263 26.658892,50.708282 
	C26.555555,51.000000 26.111111,51.000000 25.333332,51.000000 
z"/>
</svg>